<svg version="1.1" id="Layer_1" xmlns="http://www.w3.org/2000/svg" xmlns:xlink="http://www.w3.org/1999/xlink" x="0px" y="0px"
	 width="100%" viewBox="0 0 406 378" enable-background="new 0 0 406 378" xml:space="preserve">
<path fill="#000000" opacity="1.000000" stroke="none" 
	d="
M195.000000,379.000000 
	C130.000015,379.000000 65.500023,379.000000 1.000026,379.000000 
	C1.000017,253.000031 1.000017,127.000069 1.000009,1.000077 
	C136.333267,1.000051 271.666534,1.000051 406.999878,1.000026 
	C406.999908,126.999916 406.999908,252.999832 406.999939,378.999878 
	C336.500000,379.000000 266.000000,379.000000 195.000000,379.000000 
M219.986938,106.992882 
	C219.986938,106.992882 219.987427,106.921379 219.287537,106.913498 
	C217.852844,108.239143 216.418152,109.564789 214.909210,110.893654 
	C214.909210,110.893654 214.907730,110.967972 214.209076,111.160576 
	C214.150040,111.625313 214.091003,112.090050 214.100037,112.516228 
	C214.100037,112.516228 214.064438,112.446594 213.396759,113.092979 
	C213.264374,114.899269 213.021240,116.705299 213.017166,118.511879 
	C212.985458,132.578476 212.969681,146.645264 213.006805,160.711838 
	C213.064346,182.516174 213.167709,204.320389 213.062408,226.835007 
	C213.000763,227.976395 212.475327,229.746460 212.980698,230.119308 
	C213.848938,230.759842 215.577408,231.011749 216.559799,230.570221 
	C219.202835,229.382324 221.758438,227.908875 224.142654,226.252151 
	C233.576950,219.696472 238.867294,210.684860 239.993881,198.233627 
	C240.015778,164.814972 240.037689,131.396301 239.991089,97.359497 
	C240.280258,96.611565 240.569412,95.863632 241.003387,94.445602 
	C240.943024,94.225197 240.882660,94.004799 240.906601,93.249992 
	C240.918076,92.889511 240.929550,92.529030 241.592056,91.852501 
	C241.671066,90.709373 241.750076,89.566238 241.859985,87.976036 
	C240.535400,88.992111 239.769196,89.579865 238.339981,90.234039 
	C232.843002,95.515167 227.346008,100.796303 221.256851,106.062180 
	C220.809723,106.372093 220.362579,106.682014 219.986938,106.992882 
M180.013794,158.791290 
	C180.077194,183.563446 180.140594,208.335617 180.069122,233.924362 
	C179.829346,245.569717 172.682846,253.470856 164.269119,261.348816 
	C169.497665,263.826782 173.986969,262.826996 178.324265,261.875671 
	C193.455353,258.556915 206.440033,242.730301 206.734589,229.765671 
	C206.821381,229.278976 206.983917,228.792328 206.984146,228.305603 
	C206.999252,196.581375 207.013596,164.857132 206.954498,133.133026 
	C206.952362,131.985428 206.215958,130.839203 205.955215,128.928955 
	C205.989044,128.266632 206.102661,127.596863 206.041641,126.943398 
	C205.862228,125.022232 205.613480,123.107536 205.391861,121.190300 
	C203.908112,122.000633 202.222122,122.577896 200.974564,123.660431 
	C194.530411,129.252228 188.132797,134.902008 181.856033,140.680496 
	C178.859665,143.439011 176.167191,146.527618 172.577530,150.255493 
	C175.665359,150.686844 177.667572,150.966553 179.811569,151.266068 
	C179.951263,153.590942 180.079178,155.719788 180.013794,158.791290 
M159.028549,252.954285 
	C160.671036,252.300934 162.470413,251.891068 163.928391,250.951431 
	C169.760284,247.193024 174.522415,241.515411 173.641373,234.930405 
	C172.172150,223.949326 164.594894,217.189758 152.391678,219.122314 
	C145.030777,220.288010 136.964218,230.232849 138.073624,236.359879 
	C140.073608,247.405548 146.640808,252.815170 159.028549,252.954285 
z"/>
<path fill="#F81E1D" opacity="1.000000" stroke="none" 
	d="
M205.936752,230.189194 
	C206.440033,242.730301 193.455353,258.556915 178.324265,261.875671 
	C173.986969,262.826996 169.497665,263.826782 164.269119,261.348816 
	C172.682846,253.470856 179.829346,245.569717 180.476440,233.244919 
	C180.957855,208.369446 181.039673,184.173416 181.068100,159.977325 
	C181.068924,159.268097 180.506760,158.558212 180.207108,157.848633 
	C180.079178,155.719788 179.951263,153.590942 179.811569,151.266068 
	C177.667572,150.966553 175.665359,150.686844 172.577530,150.255493 
	C176.167191,146.527618 178.859665,143.439011 181.856033,140.680496 
	C188.132797,134.902008 194.530411,129.252228 200.974564,123.660431 
	C202.222122,122.577896 203.908112,122.000633 205.391861,121.190308 
	C205.613480,123.107536 205.862228,125.022232 206.041641,126.943398 
	C206.102661,127.596863 205.989044,128.266632 205.833450,129.800171 
	C205.748779,155.224579 205.799057,179.777786 205.797882,204.330978 
	C205.797775,206.289520 205.247452,208.252014 205.287277,210.205856 
	C205.423035,216.868607 205.708450,223.528320 205.936752,230.189194 
z"/>
<path fill="#FA1A19" opacity="1.000000" stroke="none" 
	d="
M240.858566,95.115692 
	C240.569412,95.863632 240.280258,96.611565 239.698975,97.948288 
	C239.246689,99.675468 238.947266,100.813789 238.946686,101.952255 
	C238.930740,133.301941 238.937088,164.651642 238.989319,196.001266 
	C238.991074,197.060196 239.505692,198.118286 239.781265,199.176758 
	C238.867294,210.684860 233.576950,219.696472 224.142654,226.252151 
	C221.758438,227.908875 219.202835,229.382324 216.559799,230.570221 
	C215.577408,231.011749 213.848938,230.759842 212.980698,230.119308 
	C212.475327,229.746460 213.000763,227.976395 213.491974,226.240112 
	C214.147598,212.483215 214.373672,199.321243 214.704468,185.827118 
	C214.731461,185.276199 214.653732,185.057419 214.586578,184.380554 
	C214.598846,172.496201 214.671005,161.069427 214.583206,149.643860 
	C214.487915,137.244171 214.243713,124.845634 214.064438,112.446594 
	C214.064438,112.446594 214.100037,112.516228 214.514771,112.499870 
	C214.922256,111.978333 214.914993,111.473152 214.907730,110.967972 
	C214.907730,110.967972 214.909210,110.893654 215.151825,111.261009 
	C216.925446,110.059372 218.456436,108.490372 219.987427,106.921371 
	C219.987427,106.921379 219.986938,106.992882 220.243469,107.029419 
	C220.949692,106.736443 221.399353,106.406937 221.849014,106.077438 
	C227.346008,100.796303 232.843002,95.515167 238.825668,90.434464 
	C239.854584,91.146111 240.397797,91.657326 240.941025,92.168549 
	C240.929550,92.529030 240.918076,92.889511 240.738159,93.670525 
	C240.666000,94.432602 240.762283,94.774147 240.858566,95.115692 
z"/>
<path fill="#F61F1E" opacity="1.000000" stroke="none" 
	d="
M158.604034,252.938019 
	C146.640808,252.815170 140.073608,247.405548 138.073624,236.359879 
	C136.964218,230.232849 145.030777,220.288010 152.391678,219.122314 
	C164.594894,217.189758 172.172150,223.949326 173.641373,234.930405 
	C174.522415,241.515411 169.760284,247.193024 163.928391,250.951431 
	C162.470413,251.891068 160.671036,252.300934 158.604034,252.938019 
z"/>
<path fill="#FFF2EA" opacity="1.000000" stroke="none" 
	d="
M214.599731,186.159256 
	C214.373672,199.321243 214.147598,212.483215 213.586594,225.884933 
	C213.167709,204.320389 213.064346,182.516174 213.006805,160.711838 
	C212.969681,146.645264 212.985458,132.578476 213.017166,118.511879 
	C213.021240,116.705299 213.264374,114.899269 213.730591,112.769791 
	C214.243713,124.845634 214.487915,137.244171 214.583206,149.643860 
	C214.671005,161.069427 214.598846,172.496201 214.430756,184.513153 
	C214.376144,185.455643 214.487946,185.807449 214.599731,186.159256 
z"/>
<path fill="#FFECE6" opacity="1.000000" stroke="none" 
	d="
M206.335663,229.977432 
	C205.708450,223.528320 205.423035,216.868607 205.287277,210.205856 
	C205.247452,208.252014 205.797775,206.289520 205.797882,204.330978 
	C205.799057,179.777786 205.748779,155.224579 205.766724,130.181870 
	C206.215958,130.839203 206.952362,131.985428 206.954498,133.133026 
	C207.013596,164.857132 206.999252,196.581375 206.984146,228.305603 
	C206.983917,228.792328 206.821381,229.278976 206.335663,229.977432 
z"/>
<path fill="#FFC4BC" opacity="1.000000" stroke="none" 
	d="
M239.887573,198.705200 
	C239.505692,198.118286 238.991074,197.060196 238.989319,196.001266 
	C238.937088,164.651642 238.930740,133.301941 238.946686,101.952255 
	C238.947266,100.813789 239.246689,99.675468 239.733215,98.257370 
	C240.037689,131.396301 240.015778,164.814972 239.887573,198.705200 
z"/>
<path fill="#FFECE6" opacity="1.000000" stroke="none" 
	d="
M180.110443,158.319962 
	C180.506760,158.558212 181.068924,159.268097 181.068100,159.977325 
	C181.039673,184.173416 180.957855,208.369446 180.543884,232.836624 
	C180.140594,208.335617 180.077194,183.563446 180.110443,158.319962 
z"/>
<path fill="#F5968C" opacity="1.000000" stroke="none" 
	d="
M219.637482,106.917435 
	C218.456436,108.490372 216.925446,110.059372 215.188965,111.259399 
	C216.418152,109.564789 217.852844,108.239143 219.637482,106.917435 
z"/>
<path fill="#D84442" opacity="1.000000" stroke="none" 
	d="
M241.266541,92.010529 
	C240.397797,91.657326 239.854584,91.146111 239.157166,90.401245 
	C239.769196,89.579865 240.535400,88.992111 241.859985,87.976036 
	C241.750076,89.566238 241.671066,90.709373 241.266541,92.010529 
z"/>
<path fill="#F5968C" opacity="1.000000" stroke="none" 
	d="
M221.552933,106.069809 
	C221.399353,106.406937 220.949692,106.736443 220.207733,107.028938 
	C220.362579,106.682014 220.809723,106.372093 221.552933,106.069809 
z"/>
<path fill="#D84442" opacity="1.000000" stroke="none" 
	d="
M240.930969,94.780647 
	C240.762283,94.774147 240.666000,94.432602 240.696014,93.937729 
	C240.882660,94.004799 240.943024,94.225197 240.930969,94.780647 
z"/>
<path fill="#F5968C" opacity="1.000000" stroke="none" 
	d="
M214.558411,111.064270 
	C214.914993,111.473152 214.922256,111.978333 214.480743,112.519150 
	C214.091003,112.090050 214.150040,111.625313 214.558411,111.064270 
z"/>
<path fill="#F5968C" opacity="1.000000" stroke="none" 
	d="
M214.704468,185.827118 
	C214.487946,185.807449 214.376144,185.455643 214.420181,184.971252 
	C214.653732,185.057419 214.731461,185.276199 214.704468,185.827118 
z"/>
</svg>